<?xml version="1.0" standalone="no"?>
<!DOCTYPE svg PUBLIC "-//W3C//DTD SVG 20010904//EN"
 "http://www.w3.org/TR/2001/REC-SVG-20010904/DTD/svg10.dtd">
<svg version="1.0" xmlns="http://www.w3.org/2000/svg"
 width="300.000000pt" height="300.000000pt" viewBox="0 0 300.000000 300.000000"
 preserveAspectRatio="xMidYMid meet">
<metadata>
Created by potrace 1.11, written by Peter Selinger 2001-2013
</metadata>
<g transform="translate(0.000000,300.000000) scale(0.100000,-0.100000)"
fill="#000000" stroke="none">
<path d="M0 1500 l0 -1500 1500 0 1500 0 0 1500 0 1500 -1500 0 -1500 0 0
-1500z m1233 736 c46 -19 105 -83 134 -144 71 -151 47 -309 -57 -380 -46 -31
-131 -28 -182 8 -79 55 -134 159 -145 273 -16 178 111 302 250 243z m596 -1
c137 -71 144 -320 13 -466 -53 -59 -92 -79 -155 -79 -99 0 -177 102 -177 230
0 127 82 276 175 316 40 18 110 17 144 -1z m-919 -475 c115 -58 195 -242 161
-368 -39 -143 -192 -163 -306 -41 -70 75 -100 147 -100 239 0 58 5 85 23 117
42 80 129 101 222 53z m1270 5 c14 -7 36 -33 50 -57 21 -35 25 -56 25 -118 0
-63 -5 -86 -30 -135 -60 -124 -155 -193 -251 -182 -159 17 -180 270 -36 429
73 80 163 104 242 63z m-570 -321 c141 -67 288 -216 359 -364 32 -66 36 -84
36 -152 0 -66 -3 -80 -23 -101 -57 -60 -172 -63 -347 -7 -160 51 -199 51 -347
4 -186 -60 -298 -57 -353 7 -20 25 -25 41 -25 89 0 183 209 444 430 537 80 34
181 29 270 -13z"/>
</g>
</svg>
